<svg xmlns="http://www.w3.org/2000/svg" width="1em" height="1em" viewBox="0 0 2048 2048"><path fill="#ff8080" d="M608 128q45 0 77 9t58 24t46 31t40 31t44 23t55 10h992q27 0 50 10t40 27t28 41t10 50v451l-128-128V384H928q-31 0-54 9t-44 24t-41 31t-45 31t-58 23t-78 10H128v1152h640v128H0V256q0-27 10-50t27-40t41-28t50-10zm0 256q24 0 42-4t33-13t29-20t32-27q-17-15-31-26t-30-20t-33-13t-42-5H128v128zm1019 256l421 421v987H896V640zm37 384h165l-165-165zm256 128h-384V768h-512v1152h896zm-768 512h512v128h-512zm256-128h-256v-128h256zm0-256h-256v-128h256zm0-256h-256V896h256z"/></svg>