<svg width="20" height="19" viewBox="0 0 20 19" fill="none" xmlns="http://www.w3.org/2000/svg">
  <path
    d="M0 19V17H9V5.825C8.56667 5.675 8.19167 5.44167 7.875 5.125C7.55833 4.80834 7.325 4.43334 7.175 4H4L7 11C7 11.8333 6.65833 12.5417 5.975 13.125C5.29167 13.7083 4.46667 14 3.5 14C2.53333 14 1.70833 13.7083 1.025 13.125C0.341667 12.5417 0 11.8333 0 11L3 4H1V2H7.175C7.375 1.41667 7.73333 0.937668 8.25 0.563002C8.76667 0.188335 9.35 0.000668437 10 1.76991e-06C10.65 -0.000664897 11.2333 0.187002 11.75 0.563002C12.2667 0.939002 12.625 1.418 12.825 2H19V4H17L20 11C20 11.8333 19.6583 12.5417 18.975 13.125C18.2917 13.7083 17.4667 14 16.5 14C15.5333 14 14.7083 13.7083 14.025 13.125C13.3417 12.5417 13 11.8333 13 11L16 4H12.825C12.675 4.43334 12.4417 4.80834 12.125 5.125C11.8083 5.44167 11.4333 5.675 11 5.825V17H20V19H0ZM14.625 11H18.375L16.5 6.65L14.625 11ZM1.625 11H5.375L3.5 6.65L1.625 11ZM10 4C10.2833 4 10.521 3.904 10.713 3.712C10.905 3.52 11.0007 3.28267 11 3C10.9993 2.71733 10.9033 2.48 10.712 2.288C10.5207 2.096 10.2833 2 10 2C9.71667 2 9.47933 2.096 9.288 2.288C9.09667 2.48 9.00067 2.71733 9 3C8.99933 3.28267 9.09533 3.52033 9.288 3.713C9.48067 3.90567 9.718 4.00134 10 4Z"
    fill="white" />
</svg>
  